<svg width="24" height="24" viewBox="0 0 24 24" fill="none" xmlns="http://www.w3.org/2000/svg">
<path d="M17.6721 5.22781C17.9759 4.92406 18.469 4.92406 18.7727 5.22781C19.0765 5.53155 19.0765 6.02465 18.7727 6.32839L13.1009 12.0003L18.7727 17.6721C19.0765 17.9759 19.0765 18.469 18.7727 18.7727C18.469 19.0765 17.9759 19.0765 17.6721 18.7727L12.0003 13.1009L6.32839 18.7727C6.02465 19.0765 5.53155 19.0765 5.22781 18.7727C4.92406 18.469 4.92406 17.9759 5.22781 17.6721L10.8997 12.0003L5.22781 6.32839C4.92406 6.02465 4.92406 5.53155 5.22781 5.22781C5.53155 4.92406 6.02465 4.92406 6.32839 5.22781L12.0003 10.8997L17.6721 5.22781Z" fill="#333333"/>
</svg>
