<svg width="24" height="24" viewBox="0 0 24 24" fill="none" xmlns="http://www.w3.org/2000/svg">
<path d="M12 4C16.4183 4 20 7.58172 20 12C20 16.4183 16.4183 20 12 20C7.58172 20 4 16.4183 4 12C4 7.58172 7.58172 4 12 4ZM14.5723 9.42871C14.2883 9.14524 13.8278 9.14501 13.5439 9.42871L12.001 10.9707L10.458 9.42871C10.174 9.145 9.7136 9.1448 9.42969 9.42871C9.14612 9.71265 9.14609 10.1731 9.42969 10.457L10.9727 12L9.42969 13.543C9.14602 13.827 9.14586 14.2883 9.42969 14.5723C9.71349 14.8558 10.174 14.8555 10.458 14.5723L12.001 13.0283L13.5439 14.5713C13.8279 14.855 14.2893 14.855 14.5732 14.5713C14.8568 14.2874 14.8567 13.8269 14.5732 13.543L13.0293 11.999L14.5723 10.457C14.8561 10.173 14.8561 9.71269 14.5723 9.42871Z" fill="#333333"/>
</svg>
